<?xml version="1.0" encoding="UTF-8" standalone="no"?>
<!-- Created with Inkscape (http://www.inkscape.org/) -->

<svg
   width="395.53812mm"
   height="461.43503mm"
   viewBox="0 0 395.53809 461.43503"
   version="1.1"
   id="svg1"
   xml:space="preserve"
   xmlns="http://www.w3.org/2000/svg"
   xmlns:svg="http://www.w3.org/2000/svg"><defs
     id="defs1" /><g
     id="layer1"
     transform="translate(150.63116,261.88652)"><path
       fill-rule="nonzero"
       fill="#000000"
       fill-opacity="1"
       d="m 190.25955,-261.87739 c 10.95848,12.74548 18.36475,22.86269 22.21672,30.3506 1.59265,2.99 2.92592,6.02754 3.99769,9.11263 l 1.36012,4.66948 c 0.75655,3.14089 1.15652,6.34793 1.19062,9.61802 l -0.24598,4.9506 c -1.19888,11.21482 -6.14122,23.31744 -14.82183,36.30269 -5.3609,-5.42602 -9.77923,-10.67532 -13.25604,-15.74787 l -0.0206,0.003 c 0.79891,-2.11666 1.36218,-3.9026 1.68775,-5.35264 0.16433,-0.70177 0.30178,-1.42937 0.41547,-2.18282 l 0.1478,-1.16168 c 0.0847,-0.78859 0.13539,-1.61437 0.15089,-2.4815 0.0135,-0.86817 -0.005,-1.77251 -0.061,-2.71715 l -0.10025,-1.44281 c -0.0848,-0.97875 -0.19328,-1.98437 -0.32763,-3.01894 -0.31832,-2.54971 -0.95086,-6.32312 -1.89757,-11.32333 h -0.0206 c 0.0713,4.65397 0.0661,8.1225 -0.0114,10.40556 -0.0972,2.2593 -0.17465,3.56981 -0.22945,3.92431 -0.0744,0.81442 -0.16743,1.57406 -0.27802,2.28306 -0.11367,0.70901 -0.24908,1.3653 -0.39997,1.97094 -0.0579,0.35244 -0.32245,1.16996 -0.79066,2.45567 -0.37102,0.94981 -0.92395,2.02675 -1.65155,3.22771 -0.13229,-0.23565 -0.26459,-0.47129 -0.39172,-0.70694 -3.72795,-6.44715 -7.65122,-17.80046 -11.77086,-34.0589 h -0.0206 c 0.8568,14.13351 2.12183,24.21144 3.80442,30.23071 1.51101,7.05694 5.22036,16.06517 11.12594,27.02781 1.15858,2.17455 2.98378,5.39709 5.4715,9.66763 l -0.0217,0.002 c -3.62458,4.06486 -6.84713,6.9112 -9.6728,8.53798 -1.61954,1.06143 -3.39204,1.87688 -5.31852,2.44532 -4.97128,-1.87068 -8.42637,-4.22816 -10.35804,-7.06726 -1.31773,-1.34359 -2.89182,-4.5589 -4.72011,-9.64386 -1.24333,-3.72794 -2.58797,-9.57254 -4.03284,-17.53174 -1.65571,9.05991 -2.24896,15.60007 -1.78593,19.61947 0.23563,4.10827 1.88412,9.76581 4.94027,16.96537 -10.45414,4.32015 -18.19529,8.29717 -23.23063,11.93519 -4.72324,3.30419 -10.22056,7.96644 -16.4941,13.99398 -0.40203,-0.008 -0.81235,-0.0165 -1.23298,-0.0217 l -0.0206,0.003 v -0.0114 c -0.10129,-0.002 -0.19844,-0.002 -0.29663,-0.002 -0.24908,0 -0.49712,0.002 -0.74104,0.002 -0.24599,0 -0.49197,-0.002 -0.74311,-0.002 -0.0982,0 -0.19638,0 -0.29353,0.002 l -0.003,0.008 -0.0206,0.003 c -0.4186,0.002 -0.82889,0.0103 -1.23095,0.0186 -6.27351,-6.02754 -11.77083,-10.68979 -16.49407,-13.99398 -5.035356,-3.63802 -12.779586,-7.61504 -23.230626,-11.93519 3.05615,-7.19956 4.70152,-12.85709 4.93718,-16.96537 0.46612,-4.01939 -0.1292,-10.55956 -1.78594,-19.61947 -1.44179,7.9592 -2.78537,13.80381 -4.02973,17.53175 -1.83039,5.08496 -3.40239,8.30026 -4.72221,9.64385 -1.93164,2.8391 -5.38467,5.19658 -10.35904,7.06727 -1.92339,-0.56844 -3.69592,-1.3839 -5.31752,-2.44533 -2.82358,-1.62677 -6.04819,-4.47621 -9.67383,-8.54005 l -0.0206,0.002 c 2.48979,-4.27261 4.31292,-7.49515 5.4746,-9.66969 5.90249,-10.96264 9.61181,-19.97088 11.12491,-27.02781 1.68053,-6.01927 2.94762,-16.09411 3.80236,-30.22555 h -0.0206 c -4.11965,16.25534 -8.04397,27.60659 -11.7688,34.05374 -0.13023,0.23564 -0.25943,0.47129 -0.39481,0.70693 -0.72761,-1.20096 -1.27744,-2.2779 -1.65055,-3.22771 -0.46818,-1.28571 -0.7307,-2.10323 -0.78857,-2.45566 -0.15401,-0.60565 -0.2863,-1.26194 -0.39999,-1.97094 -0.11367,-0.709 -0.20567,-1.47071 -0.28009,-2.28306 -0.0558,-0.35451 -0.13229,-1.66502 -0.22736,-3.92431 -0.0796,-2.28307 -0.0817,-5.74952 -0.0135,-10.39834 l -0.0206,0.003 c -0.94776,4.99298 -1.58028,8.76329 -1.89757,11.313 -0.13229,1.03457 -0.24082,2.04019 -0.32557,3.01894 l -0.10334,1.44281 c -0.0527,0.94464 -0.0734,1.84898 -0.0579,2.71715 0.0135,0.86712 0.0661,1.69291 0.14779,2.4815 l 0.14883,1.16168 c 0.11369,0.75344 0.25117,1.48105 0.4155,2.18282 0.32555,1.45004 0.88882,3.23287 1.68775,5.34954 l -0.0217,0.003 c -3.47369,5.06945 -7.89202,10.31875 -13.254986,15.74477 -8.67974,-12.98531 -13.62102,-25.08793 -14.82096,-36.30275 l -0.24701,-4.9506 c 0.0362,-3.27009 0.43408,-6.47713 1.19269,-9.61802 l 1.35908,-4.66948 c 1.07075,-3.08509 2.40298,-6.12263 3.99873,-9.11263 3.8499,-7.48791 11.255136,-17.60306 22.211586,-30.3475 l -0.0238,0.003 c -17.919296,14.89005 -28.725886,26.06146 -32.416606,33.51113 -2.90423,4.86586 -4.81211,9.98079 -5.72474,15.34584 -0.46199,2.6727 -0.72139,5.36401 -0.77825,8.07289 -0.12504,0.77515 -0.0951,2.37298 0.0899,4.79971 -3.37965,-3.28869 -5.89423,-6.59598 -7.5437195,-9.92188 -1.98024,-3.55637 -4.72014,-10.85825 -8.22071,-21.90977 l -0.0238,0.002 c 0.73692,8.07806 1.50898,14.19758 2.31511,18.35444 0.61703,3.36517 1.44489,6.5505 2.48256,9.55394 l 0.83817,2.20141 c 0.59634,1.43661 1.25574,2.81533 1.97922,4.14342 1.72288,3.5481 5.3557395,8.33954 10.8975195,14.37225 h -0.0206 l 0.48575,1.87068 c 0.67903,2.41536 1.40044,4.71186 2.16524,6.88951 1.50585,4.62504 4.63849,11.84527 9.39893,21.66379 1.02526,2.50321 1.51307,3.87883 1.46449,4.12998 0.31007,0.92604 0.27081,1.88722 -0.11885,2.87941 -2.88872,-0.34417 -5.99342,-1.30741 -9.31621,-2.88664 -3.27734,-1.76217 -6.13193,-4.02457 -8.56589,-6.78719 -3.55949,-4.19612 -6.7675595,-8.80773 -9.6242195,-13.83791 h -0.0228 c 2.35437,6.92154 5.05394,13.30875 8.0987095,19.15852 2.78744,4.53305 4.57751,7.06727 5.37332,7.6047 1.34361,1.45728 2.81742,2.71405 4.42042,3.77032 1.84071,1.49241 5.28545,2.68303 10.3332,3.57187 2.26965,0.30903 4.64883,0.49506 7.13033,0.55294 12.578056,0.0155 19.380726,0.16433 20.401856,0.44752 3.42615,0.15812 7.737,1.05833 12.93564,2.69337 4.66741,1.62988 9.21494,3.73827 13.64671,6.3314 6.14124,3.67212 12.19771,7.69358 18.169436,12.06438 l -0.0238,0.003 c -0.89713,0.78859 -1.61129,1.74873 -2.13527,2.87838 l -0.5085,1.48931 c -0.11885,0.45786 -0.22223,0.93742 -0.30904,1.43764 -4.068996,-4.46174 -7.657406,-7.57576 -10.771416,-9.3431 -1.43661,-0.77514 -2.9156,-1.34668 -4.43384,-1.71152 -0.75964,-0.19017 -1.51929,-0.35243 -2.28928,-0.48989 -3.8499,-0.59015 -6.14846,-0.98702 -6.89467,-1.18546 -0.38653,-0.0393 -1.50275,-0.38034 -3.34449,-1.01802 -2.20969,-0.74621 -5.73609,-2.66961 -10.57817,-5.77123 l -0.0238,0.003 c 2.45565,8.22585 4.54546,14.15004 6.27351,17.77152 1.77768,3.49333 2.90009,5.44566 3.36518,5.85287 0.81751,1.11932 1.69394,2.08463 2.62723,2.89699 1.90273,1.563719 3.96875,2.616889 6.19702,3.156389 1.10588,0.29146 2.21382,0.5085 3.33314,0.65939 l 7.9189,0.81235 1.37872,0.25115 c 0.88368,0.19844 1.70119,0.45786 2.45049,0.77515 1.35702,0.44442 2.820506,1.41593 4.386306,2.91042 l -0.0238,0.003 c -0.005,0.47336 -0.0156,0.74621 -0.0289,0.81442 -0.0444,1.86242 -0.15605,3.80235 -0.33588,5.81567 l -0.33899,3.06648 c -0.26977,2.07946 -0.59738,4.20129 -0.978766,6.36033 l -1.06865,5.55625 -0.0185,0.003 c -2.03708,4.74699 -3.58738,7.61194 -4.64881,8.59379 -5.22865,7.14892 -13.40075,12.03854 -24.52151,14.66267 -11.35641,2.4877 -23.49211,3.73106 -36.406046,3.73106 -1.6795,0 -3.37241,-0.0217 -5.07876,-0.0641 -8.34059,-0.0362 -18.6107595,-0.63977 -30.8115795,-1.8118 -0.0372,0 -0.0806,0.002 -0.13229,0.002 -2.05155,0 -15.3354905,-1.85208 -39.8538905,-5.55625 -5.56038,-0.61392 -8.95864,-0.92294 -10.19575,-0.92294 -0.0786,0 -0.14883,0.003 -0.20981,0.005 -1.09554,-0.063 -2.18178,-0.0951 -3.25665,-0.0982 h -0.0217 c -4.65812,-0.27698 -9.02271,-0.41754 -13.09481,-0.41754 -9.84848,0 -17.98132,0.81235 -24.39644,2.42879 -8.714708,1.98954 -16.038298,6.27042 -21.971788,12.84572 -7.08173,8.5566 -11.90212,21.42609 -14.46215,38.6105603 -1.53583,10.7414797 -2.27068,20.4059897 -2.2035,28.9935997 -0.12917,2.97553 0.13022,7.66051 0.78033,14.05599 0.35449,2.17453 0.7896,3.26181 1.30532,3.26181 0.0103,0 0.0217,0 0.0331,-0.003 0.72657,-0.12197 1.59991,-1.73942 2.62001,-4.85346 4.96408,-17.37826 8.58144,-28.90314 10.85519,-34.5730797 h 0.0217 c -0.12195,4.2674397 0.17364,8.7839497 0.88677,13.5495497 h -0.0217 c 0.27593,24.7437 -0.41445,40.6528 -2.06912,47.72938 -2.65515,14.46011 -8.3747,24.32409 -17.15866,29.59406 -1.44901,4.054531 -3.02926,9.675901 -4.74286,16.865131 -1.38391,5.75778 -2.5921,12.55014 -3.62562,20.37601 l -1.27537,11.85561 c -1.53892,19.15127 -2.40297,28.7507 -2.59313,28.79719 -0.36586,2.39366 -0.7276,4.02042 -1.08624,4.88032 -0.12298,0.67799 -0.68419,1.35911 -1.68363,2.04433 -0.15295,0.14986 -0.28731,0.66558 -0.40203,1.5472 -0.0672,0.8237 -0.0971,1.73011 -0.0889,2.7192 1.91513,1.33842 2.82048,3.71555 2.7161,7.12928 3.66387,1.82832 10.85411,2.96415 21.5718,3.40548 -0.6573,-3.37034 -1.63814,-5.84666 -2.9414,-7.42797 -0.1819,-0.75861 -2.87218,-2.29341 -8.07082,-4.60332 -0.68525,-0.50025 -1.03458,-1.43352 -1.04699,-2.80191 3.32693,-11.79463 6.00896,-21.91493 8.04707,-30.36093 1.90375,-7.81037 4.19404,-18.75647 6.87088,-32.83935 l 0.76068,-2.7347 c 0.36899,-0.87953 1.09659,-1.74564 2.18178,-2.59623 8.37676,-5.85493 16.21195,-11.82976 23.506588,-17.924491 6.1309,-5.35987 10.36214,-9.3989 12.69378,-12.11503 h 0.0217 c -3.51502,6.01515 -7.50134,11.71506 -11.95896,17.097671 l 16.2264,49.8657 c 2.49287,7.88995 4.05661,13.13201 4.69119,15.72616 0.91779,3.13571 1.62057,6.74482 2.11151,10.82414 0.3638,2.12907 0.0868,5.23483 -0.83095,9.3183 -0.03,0.9157 0.0796,1.71979 0.3276,2.41329 0.15815,0.46818 0.33489,0.92192 0.52814,1.36218 2.26033,0.82476 3.74036,1.61129 4.43799,2.35956 0.77515,0.68728 1.50688,2.05361 2.19416,4.10001 l 0.96224,0.26768 c 0.60253,0.31213 1.95233,0.46715 4.04934,0.46715 3.39825,0 8.7571,-0.40823 16.07862,-1.22577 0.0475,-1.69497 0.0175,-2.87528 -0.091,-3.54086 -0.32969,-1.99263 -1.04076,-3.32486 -2.13423,-3.99667 -0.13229,-0.17774 -0.85058,-0.54879 -2.15593,-1.11413 -5.47872,-1.55133 -8.25169,-2.45049 -8.31887,-2.69751 -1.40972,-0.73898 -2.38953,-1.93063 -2.93833,-3.576 l -5.80842,-26.90896 c -0.60566,-2.95484 -2.99207,-12.19047 -7.15926,-27.70476 l -1.86862,-8.19486 c -1.05936,-5.06016 -1.17408,-8.75914 -0.34623,-11.09803 0.0972,-1.28778 1.75596,-2.91041 4.97644,-4.86894 26.69294,-11.486651 42.74158,-20.205491 48.14382,-26.157581 0.65114,-0.53742 1.28571,-1.10485 1.90584,-1.70429 h 0.0206 c 2.51146,0.1633 5.23894,0.24495 8.18243,0.24495 2.13942,0 4.3925105,-0.0434 6.7603205,-0.13022 5.04258,-0.092 13.59503,-0.61185 25.6552895,-1.55856 h 0.0206 c 0.0217,0.005 0.0424,0.0103 0.0641,0.0164 5.61621,0.60978 9.48264,1.39112 11.60034,2.34404 1.9544,0.82577 3.69591,2.20658 5.22449,4.14341 0.43926,0.37518 1.47899,2.01641 3.12229,4.92167 0.62426,1.20819 1.21439,2.44946 1.77044,3.72277 3.039606,7.66879 4.891686,12.139821 5.553146,13.413131 1.40457,2.95796 3.06959,5.88491 4.99504,8.77879 -1.02113,17.92036 -2.77296,34.9467 -5.25653,51.07699 -0.93429,6.20426 -1.81797,10.93576 -2.64583,14.1955 -0.81545,3.38894 -1.945106,5.54487 -3.395126,6.46679 -0.24289,0.43407 -0.31729,1.66812 -0.22223,3.70416 1.64024,0.86093 2.783306,1.61439 3.429266,2.26034 0.71932,0.79478 1.01079,1.7911 0.86505,2.98791 l 2.54559,1.47487 c 2.03192,1.18234 5.43946,1.88309 10.22572,2.10219 l 8.94003,0.1881 c 0.5085,-2.96003 0.17259,-5.20796 -1.01079,-6.74585 -0.56845,-0.67177 -1.35186,-1.26709 -2.34405,-1.78697 -4.81211,-2.08462 -7.18095,-3.21839 -7.10342,-3.40135 -1.2785,-1.02526 -1.77872,-2.3709 -1.50588,-4.03696 2.98175,-11.70365 5.14906,-21.4147 6.50608,-29.13411 1.38078,-7.38663 3.31763,-20.33262 5.81255,-38.84001 3.15434,-3.48094 5.46944,-7.95404 6.95153,-13.420381 1.37768,-4.41854 3.30935,-14.0345 5.79394,-28.84392 h -0.0217 c 0.13539,-0.0899 0.27078,-0.17984 0.40513,-0.26871 h 0.0217 c 2.23243,10.39521 3.60805,16.05896 4.12171,16.98913 1.79628,5.08186 4.70151,10.73526 8.71574,16.959191 0.56637,2.14042 1.12964,4.28191 1.69291,6.42543 5.10358,19.35903 8.098736,34.71415 8.980326,46.06438 0.88059,9.03613 1.25368,15.96594 1.11932,20.78942 -0.0744,2.15802 -0.23357,3.66178 -0.47955,4.51033 l -0.38344,1.03454 c -0.84439,0.78963 -1.26711,1.40767 -1.26711,1.85312 -0.17259,0.61185 -0.0692,2.46705 0.30903,5.56659 1.89756,0.35762 3.32383,0.85268 4.27363,1.48416 1.11622,0.82476 2.01538,2.23964 2.70372,4.24677 l 1.71979,0.31107 c 0.7307,0.2398 2.00814,0.35968 3.83646,0.35968 3.88917,0 10.27121,-0.54467 19.13991,-1.63505 0.31006,-3.42098 -0.43408,-5.96035 -2.23552,-7.61606 -0.85783,-0.71934 -1.99263,-1.33326 -3.40238,-1.8397 l -9.88465,-3.04374 c -1.1276,-0.48368 -1.78078,-1.22369 -1.96371,-2.22207 -0.58187,-24.24761 -1.78284,-50.10444 -3.60598,-77.57149 2.52076,-6.985611 3.89951,-14.098351 4.13515,-21.337191 0.39997,-6.30452 0.0506,-19.08204 -1.05524,-38.33358 h -0.0185 c 14.90866,-12.74548 24.5029,-24.14013 28.77859,-34.1829197 6.6642,-9.37100996 8.35817,-27.6055703 5.08498,-54.7057303 l -0.0206,0.003 c -0.0217,-2.52905 -0.25943,-5.31338 -0.71522,-8.34472 -0.28835,-1.95543 -0.62633,-3.97701 -1.01801,-6.06681 l -3.09854,-16.13235 c -0.38343,-2.15904 -0.709,-4.28087 -0.97875,-6.36033 l -0.33898,-3.06648 c -0.17984,-2.01331 -0.29353,-3.95325 -0.33798,-5.81567 -0.0135,-0.0682 -0.0217,-0.34106 -0.03,-0.81752 l -0.0206,0.003 c 1.5658,-1.49759 3.0272,-2.4691 4.38423,-2.91352 0.75139,-0.31729 1.5658,-0.57671 2.44945,-0.77515 l 1.37875,-0.25114 7.92199,-0.81236 c 1.1162,-0.15089 2.22727,-0.36793 3.33105,-0.65939 2.23036,-0.5395 4.29639,-1.59267 6.19602,-3.156389 0.93429,-0.81236 1.81282,-1.77767 2.63033,-2.89698 0.46611,-0.40721 1.5875,-2.35955 3.36518,-5.85288 1.72495,-3.62148 3.81783,-9.54877 6.27351,-17.77462 h -0.0206 c -4.84518,3.10162 -8.3716,5.02501 -10.58333,5.77122 -1.84177,0.63769 -2.9559,0.97875 -3.34452,1.01803 -0.74621,0.19843 -3.04581,0.59531 -6.8957,1.18545 -0.76687,0.13746 -1.52858,0.29973 -2.28823,0.4899 -1.51619,0.36483 -2.99516,0.93637 -4.43486,1.71152 -3.11092,1.76733 -6.7014,4.88135 -10.7704,9.3431 -0.0879,-0.50023 -0.19121,-0.97979 -0.31006,-1.43764 l -0.50747,-1.48932 c -0.52401,-1.12964 -1.23611,-2.08979 -2.13527,-2.88147 l -0.0217,0.003 c 5.97173,-4.37079 12.0282,-8.39535 18.16632,-12.06748 4.43177,-2.59312 8.98239,-4.70152 13.64983,-6.33139 5.19657,-1.63505 9.50949,-2.53525 12.93357,-2.69338 1.0232,-0.28318 7.82278,-0.43201 20.40187,-0.44752 2.48459,-0.0579 4.85962,-0.24391 7.1303,-0.55293 5.04775,-0.88884 8.49249,-2.07947 10.33426,-3.57188 1.60404,-1.05627 3.07475,-2.31304 4.42142,-3.77031 0.79375,-0.53744 2.58485,-3.07165 5.37332,-7.60471 3.04581,-5.85184 5.74434,-12.24421 8.10183,-19.16885 h -0.0206 c -2.85772,5.03535 -6.06992,9.65006 -9.63147,13.84825 -2.43396,2.76262 -5.28648,5.02501 -8.56486,6.78718 -3.32279,1.57923 -6.42852,2.54248 -9.31518,2.88871 -0.39172,-0.99425 -0.42892,-1.95543 -0.11885,-2.88148 -0.0506,-0.25114 0.4382,-1.62677 1.46243,-4.12997 4.76044,-9.81853 7.89514,-17.03876 9.40099,-21.6638 0.7648,-2.17764 1.48413,-4.47414 2.16421,-6.8895 l 0.48678,-1.87069 h -0.0206 c 5.53972,-6.0327 9.17255,-10.82414 10.89547,-14.37225 0.72448,-1.32808 1.38284,-2.70681 1.97815,-4.14341 l 0.83924,-2.20142 c 1.03973,-3.00343 1.86552,-6.18877 2.48459,-9.55394 0.8041,-4.15995 1.57718,-10.28154 2.31511,-18.36787 h -0.0217 c -3.50263,11.05772 -6.24356,18.36271 -8.22275,21.92114 -1.65158,3.3259 -4.16718,6.63319 -7.54372,9.92188 0.18294,-2.42673 0.21185,-4.02456 0.0899,-4.79971 -0.0579,-2.70888 -0.31729,-5.40018 -0.78031,-8.07289 -0.9126,-5.36505 -2.82051,-10.47998 -5.72265,-15.34583 -3.69072,-7.45278 -14.49938,-18.62315 -32.4249,-33.51734 z m 0,0"
       id="path2-3"
       style="fill:#f5a302;fill-opacity:1;stroke-width:0.264583" /></g></svg>
